<svg width="376" height="212" viewBox="0 0 376 212" fill="none" xmlns="http://www.w3.org/2000/svg">
<rect width="376" height="212" fill="#E2E7E9"/>
<g clip-path="url(#clip0_557_209998)">
<path d="M98.0744 83.9082C97.0871 83.9082 96.2908 84.7051 96.2908 85.6932C96.2908 86.6813 97.0871 87.4718 98.0744 87.4718C99.0618 87.4718 99.8517 86.6749 99.8517 85.6932C99.8517 84.7114 99.0555 83.9082 98.0744 83.9082Z" fill="#191E1E"/>
<path d="M111.56 85.6932C111.56 84.7051 110.764 83.9082 109.777 83.9082C108.789 83.9082 107.999 84.7051 107.999 85.6932C107.999 86.6813 108.796 87.4718 109.777 87.4718C110.758 87.4718 111.56 86.6749 111.56 85.6932Z" fill="#191E1E"/>
<path d="M121.485 83.9082C120.504 83.9082 119.708 84.7051 119.708 85.6932C119.708 86.6813 120.504 87.4718 121.485 87.4718C122.466 87.4718 123.262 86.6749 123.262 85.6932C123.262 84.7114 122.466 83.9082 121.485 83.9082Z" fill="#191E1E"/>
<path d="M134.971 85.6932C134.971 84.7051 134.175 83.9082 133.187 83.9082C132.2 83.9082 131.41 84.7051 131.41 85.6932C131.41 86.6813 132.206 87.4718 133.187 87.4718C134.168 87.4718 134.971 86.6749 134.971 85.6932Z" fill="#191E1E"/>
<path d="M98.0744 95.625C97.0871 95.625 96.2908 96.4219 96.2908 97.4036C96.2908 98.3853 97.0871 99.1885 98.0744 99.1885C99.0618 99.1885 99.8517 98.3917 99.8517 97.4036C99.8517 96.4155 99.0555 95.625 98.0744 95.625Z" fill="#191E1E"/>
<path d="M98.0744 107.336C97.0871 107.336 96.2908 108.133 96.2908 109.121C96.2908 110.109 97.0871 110.899 98.0744 110.899C99.0618 110.899 99.8517 110.103 99.8517 109.121C99.8517 108.139 99.0555 107.336 98.0744 107.336Z" fill="#191E1E"/>
<path d="M98.0744 119.046C97.0871 119.046 96.2908 119.843 96.2908 120.825C96.2908 121.807 97.0871 122.61 98.0744 122.61C99.0618 122.61 99.8517 121.813 99.8517 120.825C99.8517 119.837 99.0555 119.046 98.0744 119.046Z" fill="#191E1E"/>
<path d="M98.0744 130.764C97.0871 130.764 96.2908 131.561 96.2908 132.542C96.2908 133.524 97.0871 134.321 98.0744 134.321C99.0618 134.321 99.8517 133.524 99.8517 132.542C99.8517 131.561 99.0555 130.764 98.0744 130.764Z" fill="#191E1E"/>
<path d="M111.56 97.4036C111.56 96.4219 110.764 95.625 109.777 95.625C108.789 95.625 107.999 96.4219 107.999 97.4036C107.999 98.3853 108.796 99.1885 109.777 99.1885C110.758 99.1885 111.56 98.3917 111.56 97.4036Z" fill="#191E1E"/>
<path d="M111.56 109.121C111.56 108.133 110.764 107.336 109.777 107.336C108.789 107.336 107.999 108.133 107.999 109.121C107.999 110.109 108.796 110.899 109.777 110.899C110.758 110.899 111.56 110.103 111.56 109.121Z" fill="#191E1E"/>
<path d="M111.56 120.831C111.56 119.85 110.764 119.053 109.777 119.053C108.789 119.053 107.999 119.85 107.999 120.831C107.999 121.813 108.796 122.616 109.777 122.616C110.758 122.616 111.56 121.819 111.56 120.831Z" fill="#191E1E"/>
<path d="M121.485 95.625C120.504 95.625 119.708 96.4219 119.708 97.4036C119.708 98.3853 120.504 99.1885 121.485 99.1885C122.466 99.1885 123.262 98.3917 123.262 97.4036C123.262 96.4155 122.466 95.625 121.485 95.625Z" fill="#191E1E"/>
<path d="M121.485 107.336C120.504 107.336 119.708 108.133 119.708 109.121C119.708 110.109 120.504 110.899 121.485 110.899C122.466 110.899 123.262 110.103 123.262 109.121C123.262 108.139 122.466 107.336 121.485 107.336Z" fill="#191E1E"/>
<path d="M121.485 119.046C120.504 119.046 119.708 119.843 119.708 120.825C119.708 121.807 120.504 122.61 121.485 122.61C122.466 122.61 123.262 121.813 123.262 120.825C123.262 119.837 122.466 119.046 121.485 119.046Z" fill="#191E1E"/>
<path d="M134.971 97.4036C134.971 96.4219 134.175 95.625 133.187 95.625C132.2 95.625 131.41 96.4219 131.41 97.4036C131.41 98.3853 132.206 99.1885 133.187 99.1885C134.168 99.1885 134.971 98.3917 134.971 97.4036Z" fill="#191E1E"/>
<path d="M247.387 114.112C247.918 114.112 248.349 113.681 248.349 113.15C248.349 112.618 247.918 112.187 247.387 112.187C246.855 112.187 246.425 112.618 246.425 113.15C246.425 113.681 246.855 114.112 247.387 114.112Z" fill="#191E1E"/>
<path d="M249.795 117.771C250.326 117.771 250.756 117.34 250.756 116.809C250.756 116.277 250.326 115.846 249.795 115.846C249.263 115.846 248.833 116.277 248.833 116.809C248.833 117.34 249.263 117.771 249.795 117.771Z" fill="#191E1E"/>
<path d="M244.991 117.771C245.523 117.771 245.953 117.34 245.953 116.809C245.953 116.277 245.523 115.846 244.991 115.846C244.46 115.846 244.029 116.277 244.029 116.809C244.029 117.34 244.46 117.771 244.991 117.771Z" fill="#191E1E"/>
<path d="M252.19 121.431C252.721 121.431 253.152 121 253.152 120.468C253.152 119.936 252.721 119.505 252.19 119.505C251.658 119.505 251.228 119.936 251.228 120.468C251.228 121 251.658 121.431 252.19 121.431Z" fill="#191E1E"/>
<path d="M252.19 128.749C252.721 128.749 253.152 128.318 253.152 127.786C253.152 127.255 252.721 126.824 252.19 126.824C251.658 126.824 251.228 127.255 251.228 127.786C251.228 128.318 251.658 128.749 252.19 128.749Z" fill="#191E1E"/>
<path d="M247.387 121.431C247.918 121.431 248.349 121 248.349 120.468C248.349 119.936 247.918 119.505 247.387 119.505C246.855 119.505 246.425 119.936 246.425 120.468C246.425 121 246.855 121.431 247.387 121.431Z" fill="#191E1E"/>
<path d="M242.59 121.431C243.121 121.431 243.552 121 243.552 120.468C243.552 119.936 243.121 119.505 242.59 119.505C242.058 119.505 241.628 119.936 241.628 120.468C241.628 121 242.058 121.431 242.59 121.431Z" fill="#191E1E"/>
<path d="M237.787 121.431C238.318 121.431 238.749 121 238.749 120.468C238.749 119.936 238.318 119.505 237.787 119.505C237.255 119.505 236.825 119.936 236.825 120.468C236.825 121 237.255 121.431 237.787 121.431Z" fill="#191E1E"/>
<path d="M232.99 121.431C233.521 121.431 233.952 121 233.952 120.468C233.952 119.936 233.521 119.505 232.99 119.505C232.458 119.505 232.028 119.936 232.028 120.468C232.028 121 232.458 121.431 232.99 121.431Z" fill="#191E1E"/>
<path d="M249.795 125.09C250.326 125.09 250.756 124.659 250.756 124.127C250.756 123.596 250.326 123.165 249.795 123.165C249.263 123.165 248.833 123.596 248.833 124.127C248.833 124.659 249.263 125.09 249.795 125.09Z" fill="#191E1E"/>
<path d="M244.991 125.09C245.523 125.09 245.953 124.659 245.953 124.127C245.953 123.596 245.523 123.165 244.991 123.165C244.46 123.165 244.029 123.596 244.029 124.127C244.029 124.659 244.46 125.09 244.991 125.09Z" fill="#191E1E"/>
<path d="M240.188 125.09C240.719 125.09 241.15 124.659 241.15 124.127C241.15 123.596 240.719 123.165 240.188 123.165C239.657 123.165 239.226 123.596 239.226 124.127C239.226 124.659 239.657 125.09 240.188 125.09Z" fill="#191E1E"/>
<path d="M235.391 125.09C235.923 125.09 236.353 124.659 236.353 124.127C236.353 123.596 235.923 123.165 235.391 123.165C234.86 123.165 234.429 123.596 234.429 124.127C234.429 124.659 234.86 125.09 235.391 125.09Z" fill="#191E1E"/>
<path d="M247.387 128.749C247.918 128.749 248.349 128.318 248.349 127.786C248.349 127.255 247.918 126.824 247.387 126.824C246.855 126.824 246.425 127.255 246.425 127.786C246.425 128.318 246.855 128.749 247.387 128.749Z" fill="#191E1E"/>
<path d="M242.59 128.749C243.121 128.749 243.552 128.318 243.552 127.786C243.552 127.255 243.121 126.824 242.59 126.824C242.058 126.824 241.628 127.255 241.628 127.786C241.628 128.318 242.058 128.749 242.59 128.749Z" fill="#191E1E"/>
<path d="M237.787 128.749C238.318 128.749 238.749 128.318 238.749 127.786C238.749 127.255 238.318 126.824 237.787 126.824C237.255 126.824 236.825 127.255 236.825 127.786C236.825 128.318 237.255 128.749 237.787 128.749Z" fill="#191E1E"/>
<path d="M232.99 128.749C233.521 128.749 233.952 128.318 233.952 127.786C233.952 127.255 233.521 126.824 232.99 126.824C232.458 126.824 232.028 127.255 232.028 127.786C232.028 128.318 232.458 128.749 232.99 128.749Z" fill="#191E1E"/>
<path d="M249.795 132.408C250.326 132.408 250.756 131.977 250.756 131.446C250.756 130.914 250.326 130.483 249.795 130.483C249.263 130.483 248.833 130.914 248.833 131.446C248.833 131.977 249.263 132.408 249.795 132.408Z" fill="#191E1E"/>
<path d="M244.991 132.408C245.523 132.408 245.953 131.977 245.953 131.446C245.953 130.914 245.523 130.483 244.991 130.483C244.46 130.483 244.029 130.914 244.029 131.446C244.029 131.977 244.46 132.408 244.991 132.408Z" fill="#191E1E"/>
<path d="M240.188 132.408C240.719 132.408 241.15 131.977 241.15 131.446C241.15 130.914 240.719 130.483 240.188 130.483C239.657 130.483 239.226 130.914 239.226 131.446C239.226 131.977 239.657 132.408 240.188 132.408Z" fill="#191E1E"/>
<path d="M235.391 132.408C235.923 132.408 236.353 131.977 236.353 131.446C236.353 130.914 235.923 130.483 235.391 130.483C234.86 130.483 234.429 130.914 234.429 131.446C234.429 131.977 234.86 132.408 235.391 132.408Z" fill="#191E1E"/>
<path d="M230.588 132.408C231.12 132.408 231.55 131.977 231.55 131.446C231.55 130.914 231.12 130.483 230.588 130.483C230.057 130.483 229.626 130.914 229.626 131.446C229.626 131.977 230.057 132.408 230.588 132.408Z" fill="#191E1E"/>
<path d="M244.991 110.453C245.523 110.453 245.953 110.022 245.953 109.49C245.953 108.959 245.523 108.528 244.991 108.528C244.46 108.528 244.029 108.959 244.029 109.49C244.029 110.022 244.46 110.453 244.991 110.453Z" fill="#191E1E"/>
<path d="M240.188 110.453C240.719 110.453 241.15 110.022 241.15 109.49C241.15 108.959 240.719 108.528 240.188 108.528C239.657 108.528 239.226 108.959 239.226 109.49C239.226 110.022 239.657 110.453 240.188 110.453Z" fill="#191E1E"/>
<path d="M242.59 114.112C243.121 114.112 243.552 113.681 243.552 113.15C243.552 112.618 243.121 112.187 242.59 112.187C242.058 112.187 241.628 112.618 241.628 113.15C241.628 113.681 242.058 114.112 242.59 114.112Z" fill="#191E1E"/>
<path d="M237.787 114.112C238.318 114.112 238.749 113.681 238.749 113.15C238.749 112.618 238.318 112.187 237.787 112.187C237.255 112.187 236.825 112.618 236.825 113.15C236.825 113.681 237.255 114.112 237.787 114.112Z" fill="#191E1E"/>
<path d="M240.188 117.765C240.719 117.765 241.15 117.334 241.15 116.802C241.15 116.271 240.719 115.84 240.188 115.84C239.657 115.84 239.226 116.271 239.226 116.802C239.226 117.334 239.657 117.765 240.188 117.765Z" fill="#191E1E"/>
<path d="M235.391 117.765C235.923 117.765 236.353 117.334 236.353 116.802C236.353 116.271 235.923 115.84 235.391 115.84C234.86 115.84 234.429 116.271 234.429 116.802C234.429 117.334 234.86 117.765 235.391 117.765Z" fill="#191E1E"/>
<path d="M225.785 132.408C226.316 132.408 226.747 131.977 226.747 131.446C226.747 130.914 226.316 130.483 225.785 130.483C225.254 130.483 224.823 130.914 224.823 131.446C224.823 131.977 225.254 132.408 225.785 132.408Z" fill="#191E1E"/>
<path d="M247.387 136.067C247.918 136.067 248.349 135.636 248.349 135.105C248.349 134.573 247.918 134.142 247.387 134.142C246.855 134.142 246.425 134.573 246.425 135.105C246.425 135.636 246.855 136.067 247.387 136.067Z" fill="#191E1E"/>
<path d="M242.59 136.067C243.121 136.067 243.552 135.636 243.552 135.105C243.552 134.573 243.121 134.142 242.59 134.142C242.058 134.142 241.628 134.573 241.628 135.105C241.628 135.636 242.058 136.067 242.59 136.067Z" fill="#191E1E"/>
<path d="M237.787 136.067C238.318 136.067 238.749 135.636 238.749 135.105C238.749 134.573 238.318 134.142 237.787 134.142C237.255 134.142 236.825 134.573 236.825 135.105C236.825 135.636 237.255 136.067 237.787 136.067Z" fill="#191E1E"/>
<path d="M232.99 136.067C233.521 136.067 233.952 135.636 233.952 135.105C233.952 134.573 233.521 134.142 232.99 134.142C232.458 134.142 232.028 134.573 232.028 135.105C232.028 135.636 232.458 136.067 232.99 136.067Z" fill="#191E1E"/>
<path d="M228.187 136.067C228.718 136.067 229.149 135.636 229.149 135.105C229.149 134.573 228.718 134.142 228.187 134.142C227.655 134.142 227.225 134.573 227.225 135.105C227.225 135.636 227.655 136.067 228.187 136.067Z" fill="#191E1E"/>
<path d="M223.384 136.067C223.915 136.067 224.345 135.636 224.345 135.105C224.345 134.573 223.915 134.142 223.384 134.142C222.852 134.142 222.422 134.573 222.422 135.105C222.422 135.636 222.852 136.067 223.384 136.067Z" fill="#191E1E"/>
<path d="M218.587 136.067C219.118 136.067 219.549 135.636 219.549 135.105C219.549 134.573 219.118 134.142 218.587 134.142C218.055 134.142 217.625 134.573 217.625 135.105C217.625 135.636 218.055 136.067 218.587 136.067Z" fill="#191E1E"/>
<path d="M244.991 139.726C245.523 139.726 245.953 139.296 245.953 138.764C245.953 138.232 245.523 137.801 244.991 137.801C244.46 137.801 244.029 138.232 244.029 138.764C244.029 139.296 244.46 139.726 244.991 139.726Z" fill="#191E1E"/>
<path d="M240.188 139.726C240.719 139.726 241.15 139.296 241.15 138.764C241.15 138.232 240.719 137.801 240.188 137.801C239.657 137.801 239.226 138.232 239.226 138.764C239.226 139.296 239.657 139.726 240.188 139.726Z" fill="#191E1E"/>
<path d="M235.391 139.726C235.923 139.726 236.353 139.296 236.353 138.764C236.353 138.232 235.923 137.801 235.391 137.801C234.86 137.801 234.429 138.232 234.429 138.764C234.429 139.296 234.86 139.726 235.391 139.726Z" fill="#191E1E"/>
<path d="M230.588 139.726C231.12 139.726 231.55 139.296 231.55 138.764C231.55 138.232 231.12 137.801 230.588 137.801C230.057 137.801 229.626 138.232 229.626 138.764C229.626 139.296 230.057 139.726 230.588 139.726Z" fill="#191E1E"/>
<path d="M225.785 139.726C226.316 139.726 226.747 139.296 226.747 138.764C226.747 138.232 226.316 137.801 225.785 137.801C225.254 137.801 224.823 138.232 224.823 138.764C224.823 139.296 225.254 139.726 225.785 139.726Z" fill="#191E1E"/>
<path d="M220.988 139.726C221.52 139.726 221.95 139.296 221.95 138.764C221.95 138.232 221.52 137.801 220.988 137.801C220.457 137.801 220.026 138.232 220.026 138.764C220.026 139.296 220.457 139.726 220.988 139.726Z" fill="#191E1E"/>
<path d="M216.185 139.726C216.716 139.726 217.147 139.296 217.147 138.764C217.147 138.232 216.716 137.801 216.185 137.801C215.654 137.801 215.223 138.232 215.223 138.764C215.223 139.296 215.654 139.726 216.185 139.726Z" fill="#191E1E"/>
<path d="M211.388 139.726C210.86 139.726 210.426 139.293 210.426 138.764C210.426 138.235 210.86 137.801 211.388 137.801C211.917 137.801 212.344 138.235 212.344 138.764C212.344 139.293 211.911 139.726 211.388 139.726Z" fill="#191E1E"/>
<path d="M237.787 143.386C238.318 143.386 238.749 142.955 238.749 142.423C238.749 141.891 238.318 141.46 237.787 141.46C237.255 141.46 236.825 141.891 236.825 142.423C236.825 142.955 237.255 143.386 237.787 143.386Z" fill="#191E1E"/>
<path d="M232.99 143.386C233.521 143.386 233.952 142.955 233.952 142.423C233.952 141.891 233.521 141.46 232.99 141.46C232.458 141.46 232.028 141.891 232.028 142.423C232.028 142.955 232.458 143.386 232.99 143.386Z" fill="#191E1E"/>
<path d="M228.187 143.386C228.718 143.386 229.149 142.955 229.149 142.423C229.149 141.891 228.718 141.46 228.187 141.46C227.655 141.46 227.225 141.891 227.225 142.423C227.225 142.955 227.655 143.386 228.187 143.386Z" fill="#191E1E"/>
<path d="M223.384 143.386C223.915 143.386 224.345 142.955 224.345 142.423C224.345 141.891 223.915 141.46 223.384 141.46C222.852 141.46 222.422 141.891 222.422 142.423C222.422 142.955 222.852 143.386 223.384 143.386Z" fill="#191E1E"/>
<path d="M218.587 143.386C219.118 143.386 219.549 142.955 219.549 142.423C219.549 141.891 219.118 141.46 218.587 141.46C218.055 141.46 217.625 141.891 217.625 142.423C217.625 142.955 218.055 143.386 218.587 143.386Z" fill="#191E1E"/>
<path d="M213.784 143.386C214.315 143.386 214.745 142.955 214.745 142.423C214.745 141.891 214.315 141.46 213.784 141.46C213.252 141.46 212.822 141.891 212.822 142.423C212.822 142.955 213.252 143.386 213.784 143.386Z" fill="#191E1E"/>
<path d="M208.98 143.386C209.512 143.386 209.942 142.955 209.942 142.423C209.942 141.891 209.512 141.46 208.98 141.46C208.449 141.46 208.018 141.891 208.018 142.423C208.018 142.955 208.449 143.386 208.98 143.386Z" fill="#191E1E"/>
<path d="M204.184 143.386C204.715 143.386 205.145 142.955 205.145 142.423C205.145 141.891 204.715 141.46 204.184 141.46C203.652 141.46 203.222 141.891 203.222 142.423C203.222 142.955 203.652 143.386 204.184 143.386Z" fill="#191E1E"/>
<path d="M230.588 147.045C231.12 147.045 231.55 146.614 231.55 146.082C231.55 145.551 231.12 145.12 230.588 145.12C230.057 145.12 229.626 145.551 229.626 146.082C229.626 146.614 230.057 147.045 230.588 147.045Z" fill="#191E1E"/>
<path d="M225.785 147.045C226.316 147.045 226.747 146.614 226.747 146.082C226.747 145.551 226.316 145.12 225.785 145.12C225.254 145.12 224.823 145.551 224.823 146.082C224.823 146.614 225.254 147.045 225.785 147.045Z" fill="#191E1E"/>
<path d="M220.988 147.045C221.52 147.045 221.95 146.614 221.95 146.082C221.95 145.551 221.52 145.12 220.988 145.12C220.457 145.12 220.026 145.551 220.026 146.082C220.026 146.614 220.457 147.045 220.988 147.045Z" fill="#191E1E"/>
<path d="M216.185 147.045C216.716 147.045 217.147 146.614 217.147 146.082C217.147 145.551 216.716 145.12 216.185 145.12C215.654 145.12 215.223 145.551 215.223 146.082C215.223 146.614 215.654 147.045 216.185 147.045Z" fill="#191E1E"/>
<path d="M211.388 147.045C210.86 147.045 210.426 146.611 210.426 146.082C210.426 145.553 210.86 145.12 211.388 145.12C211.917 145.12 212.344 145.553 212.344 146.082C212.344 146.611 211.911 147.045 211.388 147.045Z" fill="#191E1E"/>
<path d="M207.547 146.082C207.547 146.611 207.114 147.045 206.579 147.045C206.044 147.045 205.623 146.611 205.623 146.082C205.623 145.553 206.056 145.12 206.579 145.12C207.101 145.12 207.547 145.553 207.547 146.082Z" fill="#191E1E"/>
<path d="M201.782 147.045C201.253 147.045 200.814 146.611 200.814 146.082C200.814 145.553 201.247 145.12 201.782 145.12C202.317 145.12 202.738 145.553 202.738 146.082C202.738 146.611 202.304 147.045 201.782 147.045Z" fill="#191E1E"/>
<path d="M197.947 146.082C197.947 146.611 197.514 147.045 196.979 147.045C196.444 147.045 196.023 146.611 196.023 146.082C196.023 145.553 196.456 145.12 196.979 145.12C197.501 145.12 197.947 145.553 197.947 146.082Z" fill="#191E1E"/>
<path d="M228.187 150.704C228.718 150.704 229.149 150.273 229.149 149.741C229.149 149.21 228.718 148.779 228.187 148.779C227.655 148.779 227.225 149.21 227.225 149.741C227.225 150.273 227.655 150.704 228.187 150.704Z" fill="#191E1E"/>
<path d="M223.384 150.704C223.915 150.704 224.345 150.273 224.345 149.741C224.345 149.21 223.915 148.779 223.384 148.779C222.852 148.779 222.422 149.21 222.422 149.741C222.422 150.273 222.852 150.704 223.384 150.704Z" fill="#191E1E"/>
<path d="M218.587 150.704C219.118 150.704 219.549 150.273 219.549 149.741C219.549 149.21 219.118 148.779 218.587 148.779C218.055 148.779 217.625 149.21 217.625 149.741C217.625 150.273 218.055 150.704 218.587 150.704Z" fill="#191E1E"/>
<path d="M213.784 150.704C214.315 150.704 214.745 150.273 214.745 149.741C214.745 149.21 214.315 148.779 213.784 148.779C213.252 148.779 212.822 149.21 212.822 149.741C212.822 150.273 213.252 150.704 213.784 150.704Z" fill="#191E1E"/>
<path d="M208.98 150.704C209.512 150.704 209.942 150.273 209.942 149.741C209.942 149.21 209.512 148.779 208.98 148.779C208.449 148.779 208.018 149.21 208.018 149.741C208.018 150.273 208.449 150.704 208.98 150.704Z" fill="#191E1E"/>
<path d="M204.184 150.704C204.715 150.704 205.145 150.273 205.145 149.741C205.145 149.21 204.715 148.779 204.184 148.779C203.652 148.779 203.222 149.21 203.222 149.741C203.222 150.273 203.652 150.704 204.184 150.704Z" fill="#191E1E"/>
<path d="M199.38 150.704C199.912 150.704 200.342 150.273 200.342 149.741C200.342 149.21 199.912 148.779 199.38 148.779C198.849 148.779 198.418 149.21 198.418 149.741C198.418 150.273 198.849 150.704 199.38 150.704Z" fill="#191E1E"/>
<path d="M194.577 150.704C195.109 150.704 195.539 150.273 195.539 149.741C195.539 149.21 195.109 148.779 194.577 148.779C194.046 148.779 193.615 149.21 193.615 149.741C193.615 150.273 194.046 150.704 194.577 150.704Z" fill="#191E1E"/>
<path d="M220.026 153.407C220.026 152.878 220.46 152.438 220.988 152.438C221.517 152.438 221.95 152.871 221.95 153.407C221.95 153.942 221.517 154.363 220.988 154.363C220.46 154.363 220.026 153.93 220.026 153.407Z" fill="#191E1E"/>
<path d="M215.223 153.407C215.223 152.878 215.656 152.438 216.185 152.438C216.714 152.438 217.147 152.871 217.147 153.407C217.147 153.942 216.714 154.363 216.185 154.363C215.656 154.363 215.223 153.93 215.223 153.407Z" fill="#191E1E"/>
<path d="M210.42 153.407C210.42 152.878 210.853 152.438 211.382 152.438C211.911 152.438 212.337 152.871 212.337 153.407C212.337 153.942 211.904 154.363 211.382 154.363C210.86 154.363 210.42 153.93 210.42 153.407Z" fill="#191E1E"/>
<path d="M207.547 153.407C207.547 153.936 207.114 154.363 206.579 154.363C206.044 154.363 205.623 153.93 205.623 153.407C205.623 152.884 206.056 152.438 206.579 152.438C207.101 152.438 207.547 152.871 207.547 153.407Z" fill="#191E1E"/>
<path d="M201.782 154.363C201.253 154.363 200.814 153.93 200.814 153.407C200.814 152.884 201.247 152.438 201.782 152.438C202.317 152.438 202.738 152.871 202.738 153.407C202.738 153.942 202.304 154.363 201.782 154.363Z" fill="#191E1E"/>
<path d="M197.947 153.407C197.947 153.936 197.514 154.363 196.979 154.363C196.444 154.363 196.023 153.93 196.023 153.407C196.023 152.884 196.456 152.438 196.979 152.438C197.501 152.438 197.947 152.871 197.947 153.407Z" fill="#191E1E"/>
<path d="M192.182 154.363C191.653 154.363 191.214 153.93 191.214 153.407C191.214 152.884 191.647 152.438 192.182 152.438C192.717 152.438 193.138 152.871 193.138 153.407C193.138 153.942 192.704 154.363 192.182 154.363Z" fill="#191E1E"/>
<path d="M188.341 153.407C188.341 153.936 187.908 154.363 187.379 154.363C186.85 154.363 186.423 153.93 186.423 153.407C186.423 152.884 186.857 152.438 187.379 152.438C187.901 152.438 188.341 152.871 188.341 153.407Z" fill="#191E1E"/>
<path d="M213.784 158.022C214.315 158.022 214.745 157.591 214.745 157.06C214.745 156.528 214.315 156.097 213.784 156.097C213.252 156.097 212.822 156.528 212.822 157.06C212.822 157.591 213.252 158.022 213.784 158.022Z" fill="#191E1E"/>
<path d="M208.98 158.022C209.512 158.022 209.942 157.591 209.942 157.06C209.942 156.528 209.512 156.097 208.98 156.097C208.449 156.097 208.018 156.528 208.018 157.06C208.018 157.591 208.449 158.022 208.98 158.022Z" fill="#191E1E"/>
<path d="M204.184 158.022C204.715 158.022 205.145 157.591 205.145 157.06C205.145 156.528 204.715 156.097 204.184 156.097C203.652 156.097 203.222 156.528 203.222 157.06C203.222 157.591 203.652 158.022 204.184 158.022Z" fill="#191E1E"/>
<path d="M199.38 158.022C199.912 158.022 200.342 157.591 200.342 157.06C200.342 156.528 199.912 156.097 199.38 156.097C198.849 156.097 198.418 156.528 198.418 157.06C198.418 157.591 198.849 158.022 199.38 158.022Z" fill="#191E1E"/>
<path d="M194.577 158.022C195.109 158.022 195.539 157.591 195.539 157.06C195.539 156.528 195.109 156.097 194.577 156.097C194.046 156.097 193.615 156.528 193.615 157.06C193.615 157.591 194.046 158.022 194.577 158.022Z" fill="#191E1E"/>
<path d="M189.781 158.022C190.312 158.022 190.742 157.591 190.742 157.06C190.742 156.528 190.312 156.097 189.781 156.097C189.249 156.097 188.819 156.528 188.819 157.06C188.819 157.591 189.249 158.022 189.781 158.022Z" fill="#191E1E"/>
<path d="M184.977 158.022C185.509 158.022 185.939 157.591 185.939 157.06C185.939 156.528 185.509 156.097 184.977 156.097C184.446 156.097 184.015 156.528 184.015 157.06C184.015 157.591 184.446 158.022 184.977 158.022Z" fill="#191E1E"/>
<path d="M180.181 158.022C180.712 158.022 181.142 157.591 181.142 157.06C181.142 156.528 180.712 156.097 180.181 156.097C179.649 156.097 179.219 156.528 179.219 157.06C179.219 157.591 179.649 158.022 180.181 158.022Z" fill="#191E1E"/>
<path d="M206.579 159.756C207.108 159.756 207.547 160.19 207.547 160.719C207.547 161.248 207.114 161.682 206.579 161.682C206.044 161.682 205.623 161.248 205.623 160.719C205.623 160.19 206.056 159.756 206.579 159.756Z" fill="#191E1E"/>
<path d="M200.82 160.719C200.82 160.19 201.253 159.756 201.788 159.756C202.323 159.756 202.744 160.19 202.744 160.719C202.744 161.248 202.311 161.682 201.788 161.682C201.266 161.682 200.82 161.248 200.82 160.719Z" fill="#191E1E"/>
<path d="M196.979 159.756C197.508 159.756 197.947 160.19 197.947 160.719C197.947 161.248 197.514 161.682 196.979 161.682C196.444 161.682 196.023 161.248 196.023 160.719C196.023 160.19 196.456 159.756 196.979 159.756Z" fill="#191E1E"/>
<path d="M192.182 161.682C191.653 161.682 191.214 161.248 191.214 160.719C191.214 160.19 191.647 159.756 192.182 159.756C192.717 159.756 193.138 160.19 193.138 160.719C193.138 161.248 192.704 161.682 192.182 161.682Z" fill="#191E1E"/>
<path d="M187.379 159.756C187.908 159.756 188.341 160.19 188.341 160.719C188.341 161.248 187.908 161.682 187.379 161.682C186.85 161.682 186.423 161.248 186.423 160.719C186.423 160.19 186.857 159.756 187.379 159.756Z" fill="#191E1E"/>
<path d="M182.576 161.682C183.107 161.682 183.538 161.251 183.538 160.719C183.538 160.187 183.107 159.756 182.576 159.756C182.044 159.756 181.614 160.187 181.614 160.719C181.614 161.251 182.044 161.682 182.576 161.682Z" fill="#191E1E"/>
<path d="M177.773 161.682C178.304 161.682 178.734 161.251 178.734 160.719C178.734 160.187 178.304 159.756 177.773 159.756C177.241 159.756 176.811 160.187 176.811 160.719C176.811 161.251 177.241 161.682 177.773 161.682Z" fill="#191E1E"/>
<path d="M172.976 161.682C173.507 161.682 173.938 161.251 173.938 160.719C173.938 160.187 173.507 159.756 172.976 159.756C172.444 159.756 172.014 160.187 172.014 160.719C172.014 161.251 172.444 161.682 172.976 161.682Z" fill="#191E1E"/>
<path d="M168.173 161.682C168.704 161.682 169.134 161.251 169.134 160.719C169.134 160.187 168.704 159.756 168.173 159.756C167.641 159.756 167.211 160.187 167.211 160.719C167.211 161.251 167.641 161.682 168.173 161.682Z" fill="#191E1E"/>
<path d="M199.38 165.341C199.912 165.341 200.342 164.91 200.342 164.378C200.342 163.846 199.912 163.416 199.38 163.416C198.849 163.416 198.418 163.846 198.418 164.378C198.418 164.91 198.849 165.341 199.38 165.341Z" fill="#191E1E"/>
<path d="M194.577 165.341C195.109 165.341 195.539 164.91 195.539 164.378C195.539 163.846 195.109 163.416 194.577 163.416C194.046 163.416 193.615 163.846 193.615 164.378C193.615 164.91 194.046 165.341 194.577 165.341Z" fill="#191E1E"/>
<path d="M189.781 165.341C190.312 165.341 190.742 164.91 190.742 164.378C190.742 163.846 190.312 163.416 189.781 163.416C189.249 163.416 188.819 163.846 188.819 164.378C188.819 164.91 189.249 165.341 189.781 165.341Z" fill="#191E1E"/>
<path d="M184.977 165.341C185.509 165.341 185.939 164.91 185.939 164.378C185.939 163.846 185.509 163.416 184.977 163.416C184.446 163.416 184.015 163.846 184.015 164.378C184.015 164.91 184.446 165.341 184.977 165.341Z" fill="#191E1E"/>
<path d="M180.181 165.341C180.712 165.341 181.142 164.91 181.142 164.378C181.142 163.846 180.712 163.416 180.181 163.416C179.649 163.416 179.219 163.846 179.219 164.378C179.219 164.91 179.649 165.341 180.181 165.341Z" fill="#191E1E"/>
<path d="M175.377 165.341C175.909 165.341 176.339 164.91 176.339 164.378C176.339 163.846 175.909 163.416 175.377 163.416C174.846 163.416 174.415 163.846 174.415 164.378C174.415 164.91 174.846 165.341 175.377 165.341Z" fill="#191E1E"/>
<path d="M170.574 165.341C171.105 165.341 171.536 164.91 171.536 164.378C171.536 163.846 171.105 163.416 170.574 163.416C170.043 163.416 169.612 163.846 169.612 164.378C169.612 164.91 170.043 165.341 170.574 165.341Z" fill="#191E1E"/>
<path d="M191.214 168.037C191.214 167.508 191.647 167.075 192.182 167.075C192.717 167.075 193.138 167.508 193.138 168.037C193.138 168.566 192.704 169 192.182 169C191.66 169 191.214 168.566 191.214 168.037Z" fill="#191E1E"/>
<path d="M187.379 167.075C187.908 167.075 188.341 167.508 188.341 168.037C188.341 168.566 187.908 169 187.379 169C186.85 169 186.423 168.566 186.423 168.037C186.423 167.508 186.857 167.075 187.379 167.075Z" fill="#191E1E"/>
<path d="M182.576 169C183.107 169 183.538 168.569 183.538 168.037C183.538 167.506 183.107 167.075 182.576 167.075C182.044 167.075 181.614 167.506 181.614 168.037C181.614 168.569 182.044 169 182.576 169Z" fill="#191E1E"/>
<path d="M177.773 169C178.304 169 178.734 168.569 178.734 168.037C178.734 167.506 178.304 167.075 177.773 167.075C177.241 167.075 176.811 167.506 176.811 168.037C176.811 168.569 177.241 169 177.773 169Z" fill="#191E1E"/>
<path d="M172.976 169C173.507 169 173.938 168.569 173.938 168.037C173.938 167.506 173.507 167.075 172.976 167.075C172.444 167.075 172.014 167.506 172.014 168.037C172.014 168.569 172.444 169 172.976 169Z" fill="#191E1E"/>
<path d="M168.173 169C168.704 169 169.134 168.569 169.134 168.037C169.134 167.506 168.704 167.075 168.173 167.075C167.641 167.075 167.211 167.506 167.211 168.037C167.211 168.569 167.641 169 168.173 169Z" fill="#191E1E"/>
<path d="M141.137 148.83C141.003 149.25 140.806 149.633 140.64 150.041L162.344 162.899L162.63 127.334L156.139 111.479L136.43 100.062L130.219 107.113V120.831H130.238V127.385C131.085 127.659 131.894 127.99 132.678 128.392L137.302 123.764L144.756 131.222L140.131 135.85C140.532 136.635 140.857 137.444 141.137 138.292H147.686V148.836H141.137V148.83Z" fill="white"/>
<path d="M233.652 126.358C233.659 126.301 233.69 126.244 233.69 126.186L233.799 112.831L276.549 88.224L232.123 62.4887L240.347 57.7522L242.048 56.8278C242.704 57.0382 243.411 57.204 244.163 57.306V58.8295H248.387V57.306C249.138 57.1976 249.852 57.0382 250.502 56.8278L252.508 57.9179L255.528 56.2732L253.489 55.164C253.84 54.8325 254.107 54.4691 254.292 54.0866H257.095V51.7917H254.292C254.094 51.3837 253.795 50.9948 253.406 50.6442L255.528 49.4904L252.508 47.8457L250.361 49.0123C249.743 48.821 249.081 48.6744 248.38 48.5788V47.0552H244.157V48.5788C243.456 48.6808 242.794 48.8274 242.176 49.0123L240.029 47.8457L237.009 49.4904L239.131 50.6442C238.742 51.0012 238.443 51.3837 238.245 51.7917H235.442V54.0866H238.245C238.417 54.45 238.685 54.7879 239.003 55.1066L226.218 62.4696L270.644 88.2049L233.824 109.395L234.003 87.7395C234.003 87.7395 233.99 87.6822 233.984 87.6503C233.984 87.5483 233.952 87.4527 233.926 87.3571C233.907 87.2869 233.901 87.2104 233.875 87.1403L226.728 70.7633H226.709C226.588 70.4955 226.403 70.2405 226.123 70.0748L204.196 57.3697L199.1 60.2958L192.558 56.5091C192.284 56.3497 191.965 56.2796 191.653 56.3179C173.778 58.3132 170.905 61.1691 160.286 74.3013C160.254 74.3396 160.248 74.3842 160.222 74.4225C160.178 74.4926 160.152 74.5563 160.114 74.6328C160.05 74.7794 160.006 74.9261 159.993 75.0854C159.993 75.1364 159.955 75.1747 159.955 75.2257V82.7672L153.897 86.2478L122.549 68.0858L122.581 68.0667L121.644 67.5567L120.568 66.932C120.905 66.6069 121.173 66.2563 121.351 65.8801H124.154V63.5852H121.351C121.154 63.1772 120.854 62.7883 120.466 62.4377L122.587 61.2839L119.568 59.6392L117.421 60.8058C116.803 60.6145 116.14 60.4679 115.44 60.3723V58.8487H111.216V60.3723C110.516 60.4743 109.853 60.6209 109.235 60.8058L107.088 59.6392L104.069 61.2839L106.19 62.4377C105.802 62.7947 105.502 63.1772 105.305 63.5852H102.502V65.8801H105.305C105.489 66.2626 105.757 66.6196 106.107 66.9575L104.069 68.0667L107.088 69.7114L109.095 68.6213C109.751 68.8317 110.458 68.9974 111.21 69.0994V70.623H115.433V69.0994C116.185 68.9911 116.898 68.8317 117.548 68.6213L118.16 68.9528L150.941 87.9435L133.162 98.1561L133.818 98.5386L127.632 105.557C127.632 105.557 127.632 105.602 127.613 105.615C127.409 105.87 127.269 106.176 127.269 106.533V120.812H119.701V127.366C118.854 127.64 118.045 127.971 117.262 128.373L112.637 123.745L105.184 131.203L109.808 135.832C109.407 136.616 109.082 137.425 108.802 138.273H102.253V148.817H108.802C109.076 149.665 109.407 150.475 109.808 151.259L105.184 155.887L112.637 163.345L117.262 158.717C118.045 159.119 118.854 159.444 119.701 159.724V166.278H130.238V159.724C131.085 159.45 131.894 159.119 132.678 158.717L137.302 163.345L144.749 155.893L163.038 166.724C163.038 166.724 163.045 166.724 163.051 166.724C163.076 166.737 163.102 166.737 163.127 166.75C163.325 166.852 163.541 166.922 163.783 166.922H163.796C164.032 166.922 164.248 166.852 164.452 166.756C164.478 166.743 164.503 166.743 164.522 166.73C164.522 166.73 164.522 166.73 164.529 166.73L232.952 127.436C233.003 127.404 233.034 127.353 233.085 127.321C233.168 127.257 233.251 127.194 233.321 127.117C233.378 127.047 233.423 126.977 233.468 126.9C233.518 126.817 233.563 126.735 233.595 126.639C233.627 126.543 233.64 126.448 233.652 126.346V126.358ZM141.137 138.286C140.863 137.438 140.532 136.628 140.131 135.844L144.756 131.216L137.302 123.758L132.678 128.386C131.894 127.984 131.085 127.659 130.238 127.378V120.825H130.219V107.106L136.43 100.056L156.139 111.473L162.63 127.327L162.344 162.893L140.64 150.035C140.806 149.633 141.003 149.244 141.137 148.823H147.686V138.279H141.137V138.286ZM159.961 86.1905V90.0855L146.928 93.6745L159.961 86.1905ZM191.5 59.3204L194.571 61.099C194.176 61.1564 193.813 61.2201 193.431 61.2775C193.163 61.3157 192.895 61.3604 192.634 61.405C192.023 61.507 191.437 61.6154 190.863 61.7237C190.628 61.7684 190.386 61.813 190.156 61.8576C189.545 61.9851 188.959 62.119 188.392 62.2592C188.239 62.2975 188.073 62.3293 187.927 62.3676C187.226 62.5461 186.557 62.7373 185.92 62.9413C185.78 62.986 185.646 63.0433 185.506 63.088C185.022 63.2473 184.55 63.4194 184.098 63.5979C183.882 63.6808 183.678 63.7764 183.467 63.8657C183.111 64.0187 182.748 64.1781 182.404 64.3438C182.181 64.4522 181.964 64.5669 181.748 64.6817C181.429 64.8474 181.117 65.0195 180.811 65.198C180.595 65.3255 180.384 65.4594 180.174 65.5869C179.875 65.7781 179.582 65.9694 179.295 66.1734C179.091 66.3136 178.887 66.4603 178.69 66.6069C178.397 66.8236 178.104 67.0595 177.811 67.2954C177.626 67.4484 177.435 67.595 177.25 67.7544C176.938 68.0221 176.626 68.309 176.314 68.5958C176.154 68.7425 175.995 68.8827 175.83 69.0421C175.416 69.4373 175.001 69.8581 174.581 70.2979C174.524 70.3553 174.466 70.4127 174.409 70.47C173.912 70.9928 173.403 71.5538 172.88 72.1403C172.842 72.1849 172.797 72.2359 172.753 72.2869C172.275 72.8287 171.784 73.3961 171.281 73.9953C171.186 74.1037 171.09 74.2248 170.995 74.3396C170.517 74.9069 170.02 75.5062 169.51 76.1245C169.459 76.1883 169.402 76.2584 169.345 76.3222C169.013 76.7238 168.695 77.1126 168.351 77.5398L163.662 74.8241C173.039 63.2792 175.715 61.1117 191.494 59.3077L191.5 59.3204ZM221.498 70.8207L200.565 76.0927V65.6761L204.521 60.9843L221.498 70.8207ZM197.622 75.4233L193.29 72.918V66.779L197.622 64.4713V75.4297V75.4233ZM169.88 96.3265C169.88 96.3265 169.88 96.2755 169.899 96.2564C170.065 96.0141 170.179 95.74 170.179 95.434V80.3256L190.341 68.7488V73.7786C190.341 74.3077 190.621 74.7922 191.074 75.0536L198.348 79.2674C198.578 79.4012 198.833 79.465 199.087 79.465C199.208 79.465 199.323 79.4522 199.444 79.4267L215.376 75.4169L162.866 105.57L169.873 96.3329L169.88 96.3265ZM161.229 92.8076L166.523 95.8739L156.923 108.528L139.908 98.6724L161.229 92.8076ZM186.519 109.191L187.978 112.755L187.908 125.555L182.436 128.698L182.493 118.173L185.557 116.407C186.258 115.999 186.506 115.1 186.098 114.393C185.684 113.692 184.78 113.443 184.085 113.851L181.748 115.196L180.665 112.563L186.512 109.191H186.519ZM206.897 97.5186L212.745 94.1399L214.204 97.7035L214.134 110.511L208.662 113.653L208.719 103.128L211.783 101.363C212.484 100.955 212.732 100.056 212.325 99.3482C211.911 98.6469 211.006 98.4047 210.312 98.8063L207.974 100.151L206.897 97.5186ZM216.402 95.2938L214.191 89.9006L203.19 96.25L205.4 101.637L190.188 110.345L188.615 106.514C188.602 106.475 188.57 106.456 188.551 106.418C188.538 106.392 188.538 106.361 188.525 106.335C188.494 106.284 188.449 106.252 188.411 106.208C188.347 106.118 188.277 106.029 188.194 105.959C188.131 105.902 188.06 105.863 187.984 105.819C187.895 105.768 187.812 105.717 187.716 105.685C187.627 105.653 187.544 105.647 187.449 105.627C187.353 105.615 187.264 105.602 187.169 105.608C187.073 105.608 186.984 105.64 186.888 105.659C186.825 105.678 186.755 105.672 186.691 105.698C186.653 105.71 186.634 105.742 186.602 105.761C186.576 105.774 186.544 105.774 186.519 105.793L178.091 110.657C178.034 110.689 178.002 110.74 177.951 110.778C177.868 110.842 177.785 110.899 177.722 110.982C177.658 111.052 177.613 111.135 177.569 111.218C177.524 111.301 177.479 111.378 177.448 111.467C177.416 111.556 177.403 111.639 177.39 111.728C177.378 111.824 177.365 111.919 177.371 112.021C177.371 112.111 177.397 112.194 177.422 112.283C177.441 112.353 177.435 112.423 177.46 112.493L179.18 116.688L164.835 124.93L159.171 111.103L224.696 73.4726L230.652 87.1276L216.408 95.3001L216.402 95.2938ZM167.236 80.3192V92.8777L162.904 90.3724V77.8139L167.236 80.3192ZM233.722 112.908L210.898 126.04L199.157 119.25C197.578 120.831 195.991 121.437 195.424 121.035C194.705 120.532 194.768 118.135 196.495 115.661C198.368 113.067 200.693 112.098 201.368 112.589C201.642 112.78 201.75 113.15 201.795 113.43C201.954 114.367 201.629 115.649 200.96 116.892L210.898 122.636L232.251 110.351L233.722 112.914V112.908ZM124.976 151.227C120.752 151.227 117.319 147.791 117.319 143.564C117.319 139.338 120.752 135.902 124.976 135.902C129.199 135.902 132.633 139.338 132.633 143.564C132.633 147.791 129.199 151.227 124.976 151.227Z" fill="#191E1E"/>
<path d="M129.684 143.558C129.684 140.963 127.569 138.847 124.976 138.847C122.383 138.847 120.262 140.963 120.262 143.558C120.262 146.152 122.377 148.269 124.976 148.269C127.575 148.269 129.684 146.152 129.684 143.558Z" fill="#191E1E"/>
<path d="M249.011 82.8184L238.118 88.9127L247.699 94.4461L258.585 88.3517L249.011 82.8184Z" fill="#191E1E"/>
<path d="M254.802 112.053L274.04 123.171L293.431 112.315L274.193 101.197L254.802 112.053ZM274.065 119.779L260.764 112.091L274.167 104.588L287.468 112.276L274.065 119.779Z" fill="#191E1E"/>
<path d="M297.864 85.8081L282.614 94.344L297.743 103.09L313 94.5544L297.858 85.8081H297.864ZM288.576 94.3887L297.839 89.1995L307.031 94.5098L297.769 99.6989L288.576 94.3887Z" fill="#191E1E"/>
<path d="M132.633 143.558C132.633 139.332 129.199 135.896 124.976 135.896C120.753 135.896 117.319 139.332 117.319 143.558C117.319 147.785 120.753 151.221 124.976 151.221C129.199 151.221 132.633 147.785 132.633 143.558ZM124.976 148.269C122.377 148.269 120.262 146.153 120.262 143.558C120.262 140.964 122.377 138.847 124.976 138.847C127.575 138.847 129.684 140.964 129.684 143.558C129.684 146.153 127.569 148.269 124.976 148.269Z" fill="white"/>
<path d="M145.953 67.6076L161.344 58.9888L146.074 50.166L130.677 58.7848L145.953 67.6076ZM155.381 58.9506L145.979 64.2162L136.646 58.8295L146.049 53.5638L155.381 58.9506Z" fill="#191E1E"/>
<path d="M129.008 49.3375L133.302 46.9278L124.772 42L120.472 44.4097L116.172 46.813L124.708 51.7472L129.008 49.3375Z" fill="#191E1E"/>
<path d="M64 77.1253L82.5629 87.8478L101.266 77.3739L82.703 66.6514L64 77.1253ZM82.5884 84.4564L69.9689 77.1635L82.6839 70.0428L95.3034 77.3356L82.5884 84.4564Z" fill="#191E1E"/>
<path d="M156.929 108.522L166.529 95.8676L161.235 92.8013L139.914 98.6661L156.929 108.522Z" fill="#E9F2F2"/>
<path d="M159.961 90.0855V86.1841L146.928 93.6682L159.961 90.0855Z" fill="#E9F2F2"/>
<path d="M215.389 75.3981L199.457 79.4079C199.336 79.4397 199.221 79.4461 199.1 79.4461C198.845 79.4461 198.59 79.3824 198.361 79.2485L191.086 75.0347C190.634 74.7733 190.354 74.2825 190.354 73.7597V68.73L170.192 80.3067V95.4152C170.192 95.7211 170.077 95.9953 169.912 96.2375C169.899 96.2566 169.912 96.2885 169.893 96.3076L162.885 105.545L215.395 75.3917L215.389 75.3981Z" fill="#E9F2F2"/>
<path d="M200.572 76.0864L221.504 70.8144L204.521 60.9844L200.572 65.6699V76.0864Z" fill="#E9F2F2"/>
<path d="M162.911 90.3597L167.243 92.8651V80.313L162.911 77.8013V90.3597Z" fill="white"/>
<path d="M193.29 72.9115L197.629 75.4169V64.4648L193.29 66.7725V72.9115Z" fill="white"/>
<path d="M168.357 77.546C168.701 77.1189 169.026 76.73 169.351 76.3284C169.402 76.2647 169.459 76.1945 169.517 76.1308C170.026 75.5061 170.523 74.9132 171.001 74.3458C171.097 74.2311 171.192 74.1163 171.288 74.0016C171.791 73.4024 172.281 72.835 172.759 72.2931C172.797 72.2485 172.842 72.1911 172.887 72.1465C173.409 71.56 173.919 70.999 174.415 70.4763C174.473 70.4125 174.53 70.3615 174.587 70.3042C175.008 69.8643 175.428 69.4436 175.836 69.0483C175.995 68.8953 176.154 68.7551 176.32 68.6021C176.632 68.3152 176.944 68.0283 177.257 67.7606C177.441 67.6012 177.632 67.4482 177.817 67.3016C178.11 67.0657 178.403 66.8362 178.696 66.6131C178.894 66.4665 179.098 66.3199 179.301 66.1796C179.594 65.9756 179.887 65.7844 180.18 65.5931C180.391 65.4593 180.601 65.3254 180.817 65.2043C181.123 65.0258 181.435 64.8537 181.754 64.6879C181.971 64.5732 182.187 64.4584 182.41 64.3501C182.754 64.1843 183.111 64.0249 183.474 63.8719C183.684 63.7827 183.888 63.6871 184.105 63.6042C184.557 63.4257 185.028 63.2599 185.512 63.0942C185.653 63.0496 185.786 62.9922 185.926 62.9476C186.563 62.7436 187.232 62.5523 187.933 62.3738C188.08 62.3356 188.245 62.3037 188.398 62.2655C188.965 62.1252 189.551 61.9914 190.163 61.8639C190.392 61.8192 190.634 61.7746 190.87 61.73C191.443 61.6216 192.029 61.5132 192.641 61.4112C192.895 61.3666 193.169 61.3284 193.437 61.2837C193.819 61.2264 194.176 61.1626 194.577 61.1052L191.507 59.3267C175.721 61.1307 173.052 63.2982 163.675 74.8431L168.364 77.5588L168.357 77.546Z" fill="#E9F2F2"/>
<path d="M233.831 109.408L210.904 122.623L200.967 116.879C201.635 115.636 201.967 114.355 201.801 113.418C201.757 113.143 201.642 112.767 201.374 112.576C200.693 112.085 198.374 113.061 196.501 115.649C194.775 118.129 194.711 120.525 195.431 121.023C195.998 121.424 197.584 120.819 199.164 119.238L210.904 126.027L233.805 112.825L233.831 109.401V109.408Z" fill="white"/>
</g>
<defs>
<clipPath id="clip0_557_209998">
<rect width="249" height="127" fill="white" transform="translate(64 42)"/>
</clipPath>
</defs>
</svg>
